<?xml version="1.0" encoding="UTF-8"?>
<!DOCTYPE svg PUBLIC "-//W3C//DTD SVG 1.1//EN" "http://www.w3.org/Graphics/SVG/1.1/DTD/svg11.dtd">
<!-- Creator: CorelDRAW X7 -->
<svg xmlns="http://www.w3.org/2000/svg" xml:space="preserve" width="962px" height="433px" version="1.1" style="shape-rendering:geometricPrecision; text-rendering:geometricPrecision; image-rendering:optimizeQuality; fill-rule:evenodd; clip-rule:evenodd"
viewBox="0 0 936 421"
 xmlns:xlink="http://www.w3.org/1999/xlink">
 <defs>
  <!-- <style type="text/css">
   <![CDATA[
    .fil3 {fill:white}
    .fil2 {fill:url(#id0)}
    .fil1 {fill:url(#id1)}
    .fil0 {fill:url(#id2);fill-rule:nonzero}
   ]]>
  </style> -->
  <style type="text/css">
   <![CDATA[
    .fil3 {fill:#6c00fa56}
    .fil2 {fill:#6c00fa56}
    .fil1 {fill:#6c00fa56}
    .fil0 {fill:#6c00fa56;fill-rule:nonzero}
   ]]>
  </style>
  <linearGradient id="id0" gradientUnits="userSpaceOnUse" x1="554.329" y1="-27.1843" x2="849.864" y2="384.387">
   <stop offset="0" style="stop-opacity:1; stop-color:aqua"/>
   <stop offset="1" style="stop-opacity:1; stop-color:#33CC33"/>
  </linearGradient>
  <linearGradient id="id1" gradientUnits="userSpaceOnUse" xlink:href="#id0" x1="401.029" y1="28.2952" x2="457.509" y2="37.9479">
  </linearGradient>
  <linearGradient id="id2" gradientUnits="objectBoundingBox" xlink:href="#id0" x1="15.7595%" y1="0%" x2="84.2405%" y2="127.121%">
  </linearGradient>
 </defs>
 <g id="Layer_x0020_1">
  <metadata id="CorelCorpID_0Corel-Layer"/>
  <path class="fil0" d="M160 133l-45 111 -88 -222 16 -4 72 185 1 0 28 -71 -41 -103 14 -3 43 107zm173 -104l-104 264 -22 0 -40 -103 -41 103 -22 0 -104 -264 15 -3 100 253 1 0 51 -128 50 128 2 0 100 -253 14 3zm-27 -7l-88 222 -88 -222 15 -4 72 185 2 0 72 -185 15 4z"/>
  <path id="1" class="fil0" d="M482 310c0,15 -3,29 -10,43 -7,13 -17,23 -29,31 -12,8 -26,12 -41,12 -14,0 -29,-4 -45,-11l6 -14c12,8 25,11 37,11 13,0 24,-3 35,-10 10,-7 18,-16 24,-27 6,-11 9,-23 9,-35l0 -30 -1 -1c-12,10 -28,15 -48,15 -15,0 -30,-4 -43,-11 -14,-7 -24,-16 -32,-29 -8,-12 -12,-26 -12,-42l0 -114 14 0 0 114c0,20 7,36 21,49 15,13 32,19 52,19 13,0 25,-3 37,-8 13,-6 21,-14 26,-24l0 62zm26 -1c0,20 -5,38 -14,56 -9,17 -21,31 -37,41 -16,10 -34,15 -54,15 -19,0 -38,-4 -57,-14l5 -13c17,9 34,13 51,13 18,0 33,-4 47,-13 14,-9 25,-21 33,-36 8,-15 12,-31 12,-49l0 -211 14 0 0 211zm-26 -101c0,13 -3,23 -8,32 -5,9 -13,16 -23,21 -9,5 -20,8 -32,8 -18,0 -32,-6 -44,-17 -11,-11 -17,-26 -17,-44l0 -110 13 0 0 111c0,14 5,25 14,33 9,9 20,13 34,13 15,0 26,-4 36,-13 9,-8 13,-19 13,-33l0 -111 14 0 0 110z"/>
  <path id="2" class="fil0" d="M559 290l-14 0 0 -192 14 0 0 192zm74 -159c-10,0 -18,2 -25,6 -8,4 -13,9 -18,16 -4,7 -6,15 -6,25l0 112 -14 0 0 -112c0,-12 3,-23 9,-32 5,-9 12,-15 22,-20 10,-5 20,-8 32,-8l0 13zm0 -24c-12,0 -24,3 -36,8 -13,6 -21,13 -27,24l0 -41 14 0 0 9 1 1c6,-5 13,-9 22,-12 8,-2 17,-3 26,-3l0 14z"/>
  <path id="3" class="fil0" d="M807 180l-103 0 0 -14 83 0 1 -1c-6,-10 -14,-18 -24,-25 -10,-6 -20,-9 -32,-9 -11,0 -21,3 -31,9 -10,5 -17,13 -23,22 -6,10 -8,20 -8,31 0,12 2,22 8,31 6,10 13,18 23,23 10,6 20,9 31,9 7,0 15,-2 22,-4 7,-3 14,-8 20,-13l9 10c-15,14 -32,21 -51,21 -14,0 -26,-4 -38,-11 -11,-7 -21,-16 -28,-28 -6,-12 -10,-24 -10,-38 0,-13 4,-25 10,-37 7,-12 17,-21 28,-28 12,-7 24,-10 38,-10 18,0 34,6 48,17 14,12 23,26 27,45zm28 19l0 6 -131 0 0 -13 117 0c-1,-16 -5,-30 -13,-43 -8,-13 -19,-24 -32,-31 -14,-8 -29,-11 -44,-11 -16,0 -31,3 -45,11 -13,8 -24,18 -32,32 -8,13 -11,28 -11,43 0,13 2,24 6,34 5,11 11,20 19,28 8,9 18,15 29,19 10,5 22,7 34,7 10,0 21,-2 32,-6 11,-4 20,-10 28,-17l8 10c-9,9 -20,15 -32,20 -12,5 -24,7 -36,7 -14,0 -27,-3 -40,-8 -12,-5 -23,-12 -33,-22 -9,-9 -17,-20 -22,-32 -5,-12 -8,-26 -8,-40 0,-18 5,-35 14,-50 9,-16 22,-28 38,-37 15,-9 32,-14 51,-14 14,0 28,3 40,8 13,6 24,13 33,23 10,10 17,22 22,35 5,12 8,26 8,41z"/>
  <path class="fil1" d="M454 16l-21 -7 -15 42 21 7c12,4 25,-2 29,-13l0 0c4,-12 -3,-25 -14,-29zm-34 19l-25 -9c-2,0 -4,1 -5,3l0 0c-1,1 0,4 2,4l25 9 3 -7zm7 -19l-26 -9c-2,-1 -4,0 -4,2l0 0c-1,2 0,4 2,5l25 9 3 -7z"/>
  <path class="fil2" d="M595 348c99,4 227,18 295,-72 42,-55 55,-126 17,-184 -43,-65 -100,-86 -162,-85 -122,1 -140,80 -277,42l2 -6c122,36 156,-40 274,-43 38,-1 76,6 110,28 39,26 63,59 75,95 12,37 8,78 -8,115 -60,135 -202,120 -326,117l0 -7z"/>
  <path class="fil3" d="M586 342l-31 0 0 20 31 0 0 -4 14 0 0 -12 -14 0 0 -4zm-36 8l-18 0 0 3 18 0 0 -3zm5 -4l-4 0 0 12 4 0 0 -12z"/>
 </g>
</svg>
